<svg width="145" height="50" viewBox="0 0 145 50" fill="none" xmlns="http://www.w3.org/2000/svg">
<path d="M21.4236 0C21.7978 0 22.1011 0.304692 22.1011 0.680548V5.7626C22.1011 6.13846 21.7978 6.44315 21.4236 6.44315C21.0495 6.44315 20.7462 6.13846 20.7462 5.7626V0.680548C20.7462 0.304692 21.0495 0 21.4236 0Z" fill="white"/>
<path d="M6.59591 4.62528C6.324 4.3671 5.89521 4.37923 5.6382 4.65238C5.38118 4.92553 5.39326 5.35626 5.66518 5.61444L9.10245 8.72417C9.37437 8.98235 9.80315 8.97022 10.0602 8.69707C10.3172 8.42392 10.3051 7.99319 10.0332 7.73501L6.59591 4.62528Z" fill="white"/>
<path d="M0.677475 20.6496C0.303316 20.6496 0 20.9543 0 21.3301C0 21.706 0.303316 22.0107 0.677475 22.0107H5.16423C5.53839 22.0107 5.84171 21.706 5.84171 21.3301C5.84171 20.9543 5.53839 20.6496 5.16423 20.6496H0.677475Z" fill="white"/>
<path d="M37.3553 4.6908C37.6252 4.43051 37.6339 3.9997 37.3748 3.72856C37.1157 3.45742 36.6868 3.44863 36.4169 3.70892L32.8103 7.99386C32.5404 8.25415 32.5316 8.68496 32.7907 8.9561C33.0498 9.22723 33.4787 9.23603 33.7486 8.97573L37.3553 4.6908Z" fill="white"/>
<path d="M36.4128 21.5003C36.4128 21.1244 36.7161 20.8197 37.0902 20.8197H42.3225C42.6967 20.8197 43 21.1244 43 21.5003C43 21.8761 42.6967 22.1808 42.3225 22.1808H37.0902C36.7161 22.1808 36.4128 21.8761 36.4128 21.5003Z" fill="white"/>
<path fill-rule="evenodd" clip-rule="evenodd" d="M14.9029 39.1095C14.3417 39.1095 13.8867 39.5665 13.8867 40.1303V42.7674C13.8867 43.3312 14.3417 43.7882 14.9029 43.7882H15.0629C15.0795 44.1584 15.1944 44.7083 15.7191 45.1285C16.0918 45.427 16.6224 45.637 17.3389 45.7774C18.0623 45.9192 19.029 46 20.3227 46C21.6223 46 22.5728 45.8973 23.2671 45.7215C23.9552 45.5472 24.4568 45.2845 24.7749 44.9117C25.1034 44.5267 25.1646 44.1103 25.1445 43.7882H25.4038C25.965 43.7882 26.42 43.3312 26.42 42.7674V40.1303C26.42 39.5665 25.965 39.1095 25.4038 39.1095H14.9029ZM15.2417 42.4271V40.4705H25.0651V42.4271H15.2417ZM16.5385 44.0434C16.5463 44.0501 16.5547 44.057 16.5638 44.0642C16.6956 44.1698 16.9854 44.3214 17.5983 44.4415C18.2043 44.5602 19.0759 44.6389 20.3227 44.6389C21.5637 44.6389 22.3915 44.5395 22.9358 44.4017C23.446 44.2725 23.6525 44.1233 23.7301 44.0434H16.5385Z" fill="white"/>
<path d="M16.9406 24.4131C16.7648 24.0813 16.3545 23.9555 16.0243 24.1321C15.694 24.3087 15.5687 24.7208 15.7445 25.0526L18.3405 29.9521C18.4188 30.0997 18.4597 30.2644 18.4597 30.4317V36.2171H16.3426C15.7813 36.2171 15.3263 35.7601 15.3263 35.1963L15.3264 33.6651C15.3264 32.8091 14.9306 32.305 14.5351 31.9078C14.4581 31.8304 14.3574 31.7639 14.308 31.7313L14.3044 31.7289C14.253 31.6949 14.1892 31.6543 14.1218 31.6114L14.0617 31.5731C13.8772 31.4553 13.6397 31.3014 13.3663 31.1036C12.8192 30.7077 12.1296 30.1366 11.4661 29.3489C10.1499 27.7863 8.90793 25.3398 9.14304 21.6286C9.42579 17.1654 11.4145 14.5161 13.7089 12.9982C16.0377 11.4576 18.7189 11.0604 20.348 11.2044C20.7208 11.2373 21.0495 10.9605 21.0823 10.5861C21.1151 10.2117 20.8395 9.88146 20.4668 9.84851C18.5674 9.68061 15.5748 10.1341 12.9637 11.8615C10.3181 13.6117 8.10089 16.6477 7.79083 21.5421C7.53113 25.6414 8.91436 28.4266 10.4317 30.2281C11.1851 31.1225 11.9643 31.7666 12.5743 32.208C12.8794 32.4287 13.1425 32.599 13.335 32.7219C13.3598 32.7377 13.3829 32.7524 13.4043 32.766C13.4688 32.8071 13.5187 32.8389 13.5597 32.866C13.5789 32.8787 13.5917 32.8875 13.5995 32.893C13.8651 33.1633 13.9714 33.3392 13.9714 33.665L13.9714 35.1963C13.9714 36.5118 15.033 37.5782 16.3426 37.5782H20.9155C21.2897 37.5782 21.593 37.2735 21.593 36.8977C21.593 36.5218 21.2897 36.2171 20.9155 36.2171H19.8146V30.4317C19.8146 30.0414 19.7192 29.6571 19.5366 29.3126L16.9406 24.4131Z" fill="white"/>
<path fill-rule="evenodd" clip-rule="evenodd" d="M24.0955 13.345C24.4635 13.2769 24.8167 13.5213 24.8845 13.891C24.9264 14.1198 24.9962 14.3635 25.0876 14.5632C25.1665 14.7356 25.2369 14.8216 25.2751 14.8573L25.2788 14.8555C25.2827 14.8536 25.2869 14.8514 25.2915 14.8489L25.2956 14.8466C25.2984 14.8451 25.3014 14.8434 25.3044 14.8416C25.4357 14.7645 25.6783 14.5413 26.013 13.9969C26.2096 13.6771 26.6271 13.578 26.9454 13.7755C27.2637 13.973 27.3624 14.3924 27.1658 14.7121C26.7891 15.3247 26.4044 15.7721 25.9885 16.0165C25.7715 16.144 25.5313 16.2247 25.2756 16.2283C25.0167 16.232 24.7852 16.156 24.5911 16.0368C24.2263 15.8128 23.9982 15.4415 23.8564 15.1316C23.707 14.8049 23.6088 14.4475 23.552 14.1375C23.4842 13.7679 23.7275 13.4131 24.0955 13.345Z" fill="white"/>
<path d="M29.8444 19.2593C30.1558 19.0508 30.2399 18.6282 30.0323 18.3155C29.8248 18.0028 29.4042 17.9183 29.0929 18.1268C28.4971 18.5258 28.0645 18.5665 27.7972 18.5262C27.5118 18.4831 27.3429 18.3383 27.2915 18.2726C27.0603 17.977 26.6344 17.9257 26.3402 18.1579C26.046 18.3901 25.9949 18.8179 26.226 19.1135C26.4851 19.4447 26.9598 19.7763 27.5961 19.8722C28.2504 19.9708 29.0175 19.813 29.8444 19.2593Z" fill="white"/>
<path d="M31.9188 21.3272C31.9672 21.6999 31.7057 22.0414 31.3346 22.09C30.8423 22.1545 30.6106 22.4145 30.4802 22.7562C30.3329 23.1422 30.3336 23.6176 30.3896 23.9327C30.4554 24.3027 30.2101 24.6562 29.8418 24.7223C29.4735 24.7883 29.1215 24.542 29.0558 24.172C28.9706 23.693 28.9544 22.952 29.215 22.269C29.4926 21.5416 30.0936 20.88 31.1594 20.7404C31.5304 20.6918 31.8704 20.9545 31.9188 21.3272Z" fill="white"/>
<path d="M26.5265 24.9604C26.8854 24.8544 27.0908 24.4761 26.9853 24.1155C26.8797 23.7549 26.5031 23.5486 26.1442 23.6546C25.4122 23.8709 24.8513 24.3229 24.4554 24.7694C24.0615 25.2137 23.7991 25.6878 23.6715 26.0174C23.5359 26.3677 23.7086 26.7622 24.0574 26.8984C24.4061 27.0346 24.7987 26.8611 24.9343 26.5108C25.0043 26.3301 25.1823 25.996 25.4672 25.6747C25.7502 25.3555 26.1068 25.0844 26.5265 24.9604Z" fill="white"/>
<path d="M24.737 33.2521C24.9938 32.945 25.3722 32.6479 25.6887 32.5729C25.8233 32.5409 25.918 32.555 25.9992 32.5982C26.0886 32.6458 26.2408 32.7715 26.402 33.1089C26.564 33.4477 26.9687 33.5906 27.306 33.4279C27.6433 33.2653 27.7855 32.8587 27.6236 32.5199C27.3783 32.0066 27.0521 31.6184 26.6338 31.3956C26.2075 31.1686 25.7655 31.1561 25.3772 31.2482C24.6479 31.4212 24.0354 31.9749 23.6995 32.3767C23.4588 32.6645 23.496 33.0937 23.7825 33.3355C24.069 33.5772 24.4963 33.5399 24.737 33.2521Z" fill="white"/>
<path fill-rule="evenodd" clip-rule="evenodd" d="M29.2993 12.7371C29.2989 12.3739 29.1331 11.8863 28.8954 11.4345C28.6434 10.9555 28.2604 10.4195 27.7313 9.97087C27.1984 9.51892 26.512 9.15183 25.6697 9.03442C24.8262 8.91685 23.8742 9.05627 22.8216 9.54184C22.0057 9.91827 21.593 10.7496 21.593 11.5579V34.6859C21.593 35.892 22.0322 36.6867 22.6894 37.1626C23.2985 37.6037 24.0054 37.7004 24.3975 37.7442C24.6876 37.7766 25.1155 37.7414 25.5688 37.6463C26.0357 37.5483 26.5838 37.3756 27.1149 37.0967C28.1734 36.5409 29.2271 35.5185 29.2973 33.8186C29.3224 33.7962 29.3743 33.7557 29.4744 33.6952C29.5301 33.6615 29.6086 33.6182 29.7018 33.5669C29.9491 33.4306 30.2997 33.2374 30.6016 33.015C31.0636 32.6746 31.5344 32.1978 31.8859 31.4705C32.2345 30.7493 32.4473 29.8204 32.4558 28.599C32.4582 28.2519 32.585 27.9468 32.7953 27.7502C33.4388 27.1486 34.0609 26.559 34.5067 25.8404C34.9695 25.0943 35.2272 24.2393 35.2272 23.1166C35.2272 19.8534 33.038 18.5474 32.1207 18.0002L32.0821 17.9771C32.0619 17.965 32.0423 17.9533 32.0235 17.942C32.0166 17.8573 32.0328 17.741 32.0703 17.4724L32.0767 17.4263C32.1569 16.8514 32.2475 15.9932 31.6557 15.0205C31.1184 14.1372 30.4114 13.6235 29.9152 13.2631L29.8975 13.2502C29.6318 13.0571 29.4714 12.9375 29.3671 12.8265C29.3212 12.7777 29.3051 12.7494 29.3003 12.7394L29.2993 12.7371ZM29.2765 33.8401C29.2765 33.8401 29.2775 33.8382 29.2812 33.8341C29.2786 33.8381 29.2765 33.8401 29.2765 33.8401ZM25.4834 10.3826C24.9345 10.3061 24.2428 10.384 23.3871 10.7787C23.1341 10.8955 22.948 11.1846 22.948 11.5579V34.6859C22.948 35.5214 23.2286 35.8752 23.4818 36.0585C23.783 36.2767 24.1769 36.3501 24.5471 36.3914C24.638 36.4016 24.9088 36.3943 25.2918 36.3139C25.6611 36.2364 26.0868 36.1007 26.4872 35.8905C27.282 35.4732 27.9121 34.8082 27.9446 33.7295C27.9649 33.0589 28.4719 32.7129 28.7754 32.5292C28.9164 32.4439 29.0423 32.3753 29.163 32.3094C29.3734 32.1946 29.5682 32.0884 29.8002 31.9174C30.1192 31.6825 30.4291 31.3683 30.6671 30.876C30.908 30.3774 31.0935 29.6581 31.1009 28.5895C31.1015 28.5069 31.1058 28.424 31.1138 28.3411C29.7487 28.0587 29.1766 28.2453 28.9788 28.3846C28.8382 28.4835 28.8027 28.6305 28.8508 28.8028C28.9516 29.1647 28.7413 29.5403 28.381 29.6416C28.0207 29.743 27.6469 29.5317 27.546 29.1698C27.3964 28.6332 27.4456 27.8019 28.2012 27.2699C28.8924 26.7834 29.9923 26.6952 31.5633 27.0459C31.5762 27.0488 31.5889 27.052 31.6015 27.0556C31.6816 26.9489 31.7717 26.8478 31.8722 26.7539C32.5354 26.1339 33.0212 25.6614 33.3568 25.1206C33.6752 24.6072 33.8722 24.0053 33.8722 23.1166C33.8722 20.6335 32.2888 19.6855 31.4145 19.162L31.3669 19.1335C31.3517 19.1243 31.3366 19.1153 31.3219 19.1064C31.1369 18.995 30.9788 18.8489 30.8636 18.6614C30.7493 18.4754 30.6981 18.2828 30.6784 18.1077C30.6477 17.8358 30.6917 17.5344 30.7231 17.319L30.7233 17.3178C30.7275 17.2895 30.7314 17.2626 30.7349 17.2376C30.8029 16.7491 30.8394 16.2887 30.4996 15.7302C30.1118 15.0928 29.6014 14.7149 29.1033 14.353L29.074 14.3316C28.8483 14.1678 28.5838 13.9757 28.382 13.7611C28.1547 13.5193 27.9443 13.185 27.9443 12.7382C27.9438 12.7326 27.9379 12.666 27.896 12.5343C27.8552 12.4063 27.79 12.2464 27.6974 12.0704C27.5112 11.7164 27.2305 11.3274 26.8572 11.0109C26.4879 10.6976 26.0334 10.4593 25.4834 10.3826Z" fill="white"/>
<path d="M56.7607 21.7451V15.1387H54.8594V13.6133H56.8359L57.083 10.0898H58.7803V13.6133H61.6377V15.1387H58.7803V21.6162C58.7803 22.3682 59.0023 22.8516 59.4463 23.0664C59.8903 23.2812 60.5921 23.3887 61.5518 23.3887H61.7773L61.5625 25.0859H61.2617C59.7077 25.0859 58.569 24.8424 57.8457 24.3555C57.1224 23.8685 56.7607 22.9984 56.7607 21.7451Z" fill="white"/>
<path d="M64.0873 20.9824V17.0186C64.0873 15.9443 64.4562 15.0742 65.1938 14.4082C65.9314 13.735 67.1166 13.3984 68.7495 13.3984C70.3106 13.3984 71.4601 13.7064 72.1977 14.3223C72.9353 14.931 73.3041 15.776 73.3041 16.8574V19.5645H66.1069V21.165C66.1069 22.0889 66.2895 22.7406 66.6547 23.1201C67.0271 23.4997 67.7504 23.6895 68.8246 23.6895C69.462 23.6895 69.9633 23.668 70.3286 23.625C70.7009 23.5749 70.9731 23.4316 71.145 23.1953C71.324 22.9518 71.4422 22.5436 71.4995 21.9707H73.2827C73.1896 22.8659 72.9926 23.5498 72.6918 24.0225C72.3982 24.488 71.9435 24.8066 71.3276 24.9785C70.7117 25.1504 69.8774 25.2363 68.8246 25.2363C67.1274 25.2363 65.9135 24.8818 65.183 24.1729C64.4526 23.4639 64.0873 22.4004 64.0873 20.9824ZM71.3491 18.2002V16.6426C71.3491 15.9551 71.1092 15.5003 70.6293 15.2783C70.1567 15.0563 69.53 14.9453 68.7495 14.9453C67.9474 14.9453 67.3064 15.085 66.8266 15.3643C66.3468 15.6436 66.1069 16.1341 66.1069 16.8359V18.2002H71.3491Z" fill="white"/>
<path d="M75.872 20.9824V17.0186C75.872 15.9443 76.2408 15.0742 76.9784 14.4082C77.716 13.735 78.9013 13.3984 80.5341 13.3984C82.0953 13.3984 83.2447 13.7064 83.9823 14.3223C84.7199 14.931 85.0888 15.776 85.0888 16.8574V19.5645H77.8915V21.165C77.8915 22.0889 78.0741 22.7406 78.4393 23.1201C78.8117 23.4997 79.535 23.6895 80.6093 23.6895C81.2466 23.6895 81.7479 23.668 82.1132 23.625C82.4856 23.5749 82.7577 23.4316 82.9296 23.1953C83.1086 22.9518 83.2268 22.5436 83.2841 21.9707H85.0673C84.9742 22.8659 84.7772 23.5498 84.4764 24.0225C84.1828 24.488 83.7281 24.8066 83.1122 24.9785C82.4963 25.1504 81.662 25.2363 80.6093 25.2363C78.912 25.2363 77.6981 24.8818 76.9677 24.1729C76.2372 23.4639 75.872 22.4004 75.872 20.9824ZM83.1337 18.2002V16.6426C83.1337 15.9551 82.8938 15.5003 82.4139 15.2783C81.9413 15.0563 81.3147 14.9453 80.5341 14.9453C79.732 14.9453 79.091 15.085 78.6112 15.3643C78.1314 15.6436 77.8915 16.1341 77.8915 16.8359V18.2002H83.1337Z" fill="white"/>
<path d="M88.0648 13.6133H90.0843V14.7197C90.4209 14.333 90.8613 14.0179 91.4056 13.7744C91.9499 13.5238 92.6338 13.3984 93.4573 13.3984C94.3955 13.3984 95.1474 13.5524 95.7132 13.8604C96.2861 14.1611 96.7015 14.5658 96.9593 15.0742C97.2171 15.5755 97.346 16.127 97.346 16.7285V25H95.3265V16.6104C95.3265 16.0446 95.1045 15.6257 94.6605 15.3535C94.2165 15.0814 93.6435 14.9453 92.9417 14.9453C91.9534 14.9453 91.2301 15.1315 90.7718 15.5039C90.3135 15.8763 90.0843 16.3382 90.0843 16.8896V25H88.0648V13.6133Z" fill="white"/>
<path d="M54.8398 31.8789H56.8613L60.7578 43.1289L64.6543 31.8789H66.6953L61.6074 46H59.8789L54.8398 31.8789Z" fill="white"/>
<path d="M68.9906 44.5352H71.6859V33.334H68.9906V31.8789H76.3344V33.334H73.6488V44.5352H76.3344V46H68.9906V44.5352Z" fill="white"/>
<path d="M79.9187 46V31.8789H85.0359C86.3445 31.8789 87.3341 32.0319 88.0047 32.3379C88.6753 32.6374 89.1277 33.0768 89.3621 33.6562C89.603 34.2357 89.7234 34.9355 89.7234 35.7559C89.7234 36.3809 89.59 36.931 89.323 37.4062C89.0561 37.8815 88.5939 38.2298 87.9363 38.4512C88.7631 38.64 89.3816 39.0534 89.7918 39.6914C90.202 40.3229 90.407 41.0879 90.407 41.9863C90.407 43.3861 90.0131 44.4049 89.2254 45.043C88.4376 45.681 87.1844 46 85.4656 46H79.9187ZM81.8914 37.8652H85.5145C86.4064 37.8652 87.0021 37.6764 87.3016 37.2988C87.6075 36.9147 87.7605 36.4069 87.7605 35.7754C87.7605 35.0918 87.6727 34.5775 87.4969 34.2324C87.3276 33.8874 87.0216 33.6562 86.5789 33.5391C86.1427 33.4154 85.5275 33.3535 84.7332 33.3535H81.8914V37.8652ZM81.8914 44.5449H85.3191C86.0483 44.5449 86.644 44.4733 87.1062 44.3301C87.575 44.1868 87.92 43.9167 88.1414 43.5195C88.3628 43.1224 88.4734 42.5397 88.4734 41.7715C88.4734 41.3418 88.3986 40.9316 88.2488 40.541C88.1056 40.1439 87.8419 39.8216 87.4578 39.5742C87.0737 39.3268 86.5203 39.2031 85.7977 39.2031H81.8914V44.5449Z" fill="white"/>
<path d="M93.3859 31.8789H102.204V33.3438H95.3488V37.9922H101.404V39.457H95.3488V44.5352H102.321V46H93.3859V31.8789Z" fill="white"/>
<path d="M109.871 46.2148C108.823 46.2148 107.856 46.1042 106.97 45.8828C106.085 45.6549 105.271 45.3262 104.529 44.8965L105.222 43.3926C105.763 43.7116 106.449 43.998 107.283 44.252C108.116 44.5059 108.966 44.6328 109.832 44.6328C110.6 44.6328 111.186 44.5319 111.589 44.3301C112 44.1283 112.283 43.8158 112.439 43.3926C112.595 42.9629 112.673 42.4095 112.673 41.7324C112.673 41.3353 112.566 41 112.351 40.7266C112.136 40.4466 111.671 40.1862 110.955 39.9453L107.546 38.8125C106.57 38.487 105.867 38.0736 105.437 37.5723C105.007 37.0645 104.793 36.3288 104.793 35.3652C104.793 34.4603 104.998 33.7376 105.408 33.1973C105.824 32.6569 106.391 32.2663 107.107 32.0254C107.823 31.7845 108.63 31.6641 109.529 31.6641C110.733 31.6641 111.71 31.7585 112.459 31.9473C113.207 32.1296 113.81 32.3639 114.265 32.6504L113.787 34.1836C113.364 33.9557 112.833 33.7441 112.195 33.5488C111.563 33.347 110.789 33.2461 109.871 33.2461C108.849 33.2461 108.064 33.3796 107.517 33.6465C106.97 33.9134 106.697 34.4896 106.697 35.375C106.697 35.8047 106.788 36.1562 106.97 36.4297C107.159 36.6966 107.553 36.9342 108.152 37.1426L111.707 38.3438C112.67 38.6693 113.373 39.099 113.816 39.6328C114.265 40.1667 114.49 40.9674 114.49 42.0352C114.49 43.3372 114.129 44.3594 113.406 45.1016C112.69 45.8438 111.511 46.2148 109.871 46.2148Z" fill="white"/>
<path d="M117.455 43.4004H120.205V46H117.455V43.4004Z" fill="white"/>
<path d="M126.349 46.1719C125.521 46.1719 124.854 46.0599 124.349 45.8359C123.849 45.6068 123.484 45.2943 123.255 44.8984C123.031 44.5026 122.919 44.0495 122.919 43.5391V40.2031C122.919 39.6927 123.031 39.2396 123.255 38.8438C123.484 38.4427 123.849 38.1302 124.349 37.9062C124.854 37.6771 125.521 37.5625 126.349 37.5625C127.172 37.5625 127.833 37.6771 128.333 37.9062C128.839 38.1302 129.206 38.4427 129.435 38.8438C129.664 39.2396 129.779 39.6927 129.779 40.2031V43.5391C129.779 44.0495 129.664 44.5026 129.435 44.8984C129.206 45.2943 128.839 45.6068 128.333 45.8359C127.833 46.0599 127.172 46.1719 126.349 46.1719ZM126.349 45.0469C126.922 45.0469 127.391 44.9453 127.755 44.7422C128.125 44.5339 128.31 44.1745 128.31 43.6641V40.0781C128.31 39.5677 128.125 39.2083 127.755 39C127.391 38.7917 126.922 38.6875 126.349 38.6875C125.766 38.6875 125.292 38.7917 124.927 39C124.568 39.2083 124.388 39.5677 124.388 40.0781V43.6641C124.388 44.1745 124.568 44.5339 124.927 44.7422C125.292 44.9453 125.766 45.0469 126.349 45.0469Z" fill="white"/>
<path d="M132.068 37.7188H133.537V38.8906C133.657 38.5781 133.873 38.3281 134.185 38.1406C134.503 37.9479 134.862 37.8099 135.263 37.7266C135.664 37.6432 136.047 37.6016 136.412 37.6016L136.365 38.8594C135.896 38.8594 135.446 38.9245 135.013 39.0547C134.581 39.1797 134.227 39.3438 133.951 39.5469C133.675 39.75 133.537 39.9688 133.537 40.2031V46H132.068V37.7188Z" fill="white"/>
<path d="M141.006 49.1875C140.449 49.1875 139.969 49.1641 139.568 49.1172C139.167 49.0703 138.813 48.9896 138.506 48.875L138.834 47.7734C139.058 47.8568 139.368 47.9271 139.764 47.9844C140.16 48.0417 140.55 48.0703 140.936 48.0703C141.649 48.0703 142.162 47.9193 142.475 47.6172C142.792 47.3151 142.951 46.8568 142.951 46.2422V45.0938C142.795 45.2396 142.584 45.3568 142.318 45.4453C142.058 45.5286 141.792 45.5911 141.522 45.6328C141.251 45.6693 141.019 45.6875 140.826 45.6875C139.769 45.6875 138.98 45.4609 138.459 45.0078C137.943 44.5547 137.686 43.8984 137.686 43.0391V40.3125C137.686 39.4792 137.938 38.8125 138.443 38.3125C138.954 37.8125 139.748 37.5625 140.826 37.5625C141.107 37.5625 141.397 37.6042 141.693 37.6875C141.996 37.7708 142.261 37.875 142.49 38C142.719 38.125 142.873 38.2526 142.951 38.3828V37.7188H144.42V45.8047C144.42 46.4505 144.313 47.0286 144.1 47.5391C143.891 48.0495 143.537 48.4505 143.037 48.7422C142.542 49.0391 141.865 49.1875 141.006 49.1875ZM141.053 44.5625C141.6 44.5625 142.024 44.4818 142.326 44.3203C142.628 44.1589 142.837 44.0312 142.951 43.9375V39.8281C142.951 39.4688 142.795 39.1901 142.482 38.9922C142.175 38.7891 141.696 38.6875 141.045 38.6875C140.467 38.6875 140.006 38.8047 139.662 39.0391C139.324 39.2734 139.154 39.6458 139.154 40.1562V43.2656C139.154 43.7604 139.337 44.1016 139.701 44.2891C140.066 44.4714 140.516 44.5625 141.053 44.5625Z" fill="white"/>
</svg>
